<svg aria-hidden="true" style="position: absolute; width: 0; height: 0; overflow: hidden;" version="1.1" xmlns="http://www.w3.org/2000/svg" xmlns:xlink="http://www.w3.org/1999/xlink">
<defs>
<symbol id="icon-big-dog" viewBox="0 0 29 32">
<path fill="#54adff" style="fill: var(--color1, #54adff)" d="M26.313 11.035c3.823 2.211 3.819 7.732-0.007 9.937l-17.701 10.203c-3.826 2.206-8.606-0.558-8.602-4.975l0.015-20.431c0.003-4.417 4.786-7.174 8.61-4.963l17.686 10.228z"></path>
</symbol>
<symbol id="icon-cat" viewBox="0 0 48 32">
<path d="M47.757 43.152c-0.070 7.249-7.961 11.705-14.205 8.019l-28.88-17.048c-6.243-3.685-6.156-12.747 0.157-16.311l29.203-16.487c6.313-3.564 14.117 1.043 14.047 8.292l-0.324 33.534z"></path>
</symbol>
<symbol id="icon-small-dog" viewBox="0 0 32 32">
<path fill="#ffc107" style="fill: var(--color2, #ffc107)" d="M22.181 0.892c4.128-2.401 9.307 0.567 9.323 5.343l0.071 22.091c0.015 4.776-5.145 7.777-9.288 5.402l-19.167-10.984c-4.143-2.374-4.163-8.344-0.035-10.745l19.096-11.107z"></path>
</symbol>
<symbol id="icon-camera" viewBox="0 0 32 32">
<path fill="none" stroke="#54adff" style="stroke: var(--color1, #54adff)" stroke-linejoin="round" stroke-linecap="butt" stroke-miterlimit="4" stroke-width="2" d="M16 21.333c2.209 0 4-1.791 4-4s-1.791-4-4-4c-2.209 0-4 1.791-4 4s1.791 4 4 4z"></path>
<path fill="none" stroke="#54adff" style="stroke: var(--color1, #54adff)" stroke-linejoin="round" stroke-linecap="butt" stroke-miterlimit="4" stroke-width="2" d="M4 12c0-1.473 1.194-2.667 2.667-2.667h3.333c0.736 0 1.333-0.597 1.333-1.333s0.597-1.333 1.333-1.333h6.667c0.736 0 1.333 0.597 1.333 1.333s0.597 1.333 1.333 1.333h3.333c1.473 0 2.667 1.194 2.667 2.667v10.667c0 1.473-1.194 2.667-2.667 2.667h-18.667c-1.473 0-2.667-1.194-2.667-2.667v-10.667z"></path>
</symbol>
<symbol id="icon-edit-2" viewBox="0 0 32 32">
<path fill="#54adff" style="fill: var(--color1, #54adff)" d="M6.667 20.941l-0.707-0.707c-0.188 0.187-0.293 0.442-0.293 0.707h1zM20.941 6.667l0.707-0.707c-0.391-0.391-1.024-0.391-1.414 0l0.707 0.707zM25.333 11.059l0.707 0.707c0.391-0.391 0.391-1.024 0-1.414l-0.707 0.707zM11.059 25.333v1c0.265 0 0.52-0.105 0.707-0.293l-0.707-0.707zM6.667 25.333h-1c0 0.552 0.448 1 1 1v-1zM15.451 24.333c-0.552 0-1 0.448-1 1s0.448 1 1 1v-2zM24.784 26.333c0.552 0 1-0.448 1-1s-0.448-1-1-1v2zM7.374 21.648l14.274-14.274-1.414-1.414-14.275 14.275 1.414 1.414zM20.234 7.374l4.392 4.392 1.414-1.414-4.392-4.392-1.414 1.414zM24.626 10.352l-14.275 14.275 1.414 1.414 14.274-14.274-1.414-1.414zM11.059 24.333h-4.392v2h4.392v-2zM7.667 25.333v-4.392h-2v4.392h2zM16.94 10.668l4.392 4.392 1.414-1.414-4.392-4.392-1.414 1.414zM15.451 26.333h9.333v-2h-9.333v2z"></path>
</symbol>
<symbol id="icon-x" viewBox="0 0 32 32">
<path fill="none" stroke="#f43f5e" style="stroke: var(--color2, #f43f5e)" stroke-linejoin="round" stroke-linecap="round" stroke-miterlimit="4" stroke-width="2.6667" d="M24 8l-16 16"></path>
<path fill="none" stroke="#f43f5e" style="stroke: var(--color2, #f43f5e)" stroke-linejoin="round" stroke-linecap="round" stroke-miterlimit="4" stroke-width="2.6667" d="M8 8l16 16"></path>
</symbol>
<symbol id="icon-check" viewBox="0 0 32 32">
<path fill="none" stroke="#54adff" style="stroke: var(--color1, #54adff)" stroke-linejoin="round" stroke-linecap="round" stroke-miterlimit="4" stroke-width="2.6667" d="M26.667 8l-14.667 14.667-6.667-6.667"></path>
</symbol>
<symbol id="icon-cross-small" viewBox="0 0 32 32">
<path fill="none" stroke="#54adff" style="stroke: var(--color1, #54adff)" stroke-linejoin="round" stroke-linecap="round" stroke-miterlimit="4" stroke-width="2" d="M25.333 6.667l-18.667 18.667M6.667 6.667l18.667 18.667"></path>
</symbol>
</defs>
<defs>
<symbol id="icon-female" viewBox="0 0 33 32">
<path fill="none" stroke="#54adff" style="stroke: var(--color1, #54adff)" stroke-linejoin="round" stroke-linecap="round" stroke-miterlimit="4" stroke-width="2" d="M17.011 17.333c3.682 0 6.667-2.985 6.667-6.667s-2.985-6.667-6.667-6.667v0c-3.682 0-6.667 2.985-6.667 6.667s2.985 6.667 6.667 6.667v0zM17.011 17.333v10.667M13.011 24h8"></path>
</symbol>
<symbol id="icon-arrow-left" viewBox="0 0 32 32">
<path fill="none" stroke="#54adff" style="stroke: var(--color1, #54adff)" stroke-linejoin="round" stroke-linecap="round" stroke-miterlimit="4" stroke-width="2" d="M5.333 16h21.333M5.333 16l8-8M5.333 16l8 8"></path>
</symbol>
<symbol id="icon-male" viewBox="0 0 33 32">
<path fill="none" stroke="#54adff" style="stroke: var(--color1, #54adff)" stroke-linejoin="round" stroke-linecap="round" stroke-miterlimit="4" stroke-width="2" d="M17.011 14.667c-3.682 0-6.667 2.985-6.667 6.667s2.985 6.667 6.667 6.667v0c3.682 0 6.667-2.985 6.667-6.667s-2.985-6.667-6.667-6.667v0zM17.011 14.667v-10.667M17.011 4l5.333 5.333M17.011 4l-5.333 5.333"></path>
</symbol>
</defs>
</svg>
