<svg width="16" height="7" viewBox="0 0 16 7" fill="none" xmlns="http://www.w3.org/2000/svg">
    <path
        d="M15.3506 2.73156L15.3519 2.73312C15.4656 2.87851 15.5407 3.05326 15.574 3.23985L15.1869 2.74168L13.5067 0.579555C13.4871 0.547985 13.4784 0.510034 13.4811 0.474035C13.4833 0.445367 13.4918 0.426985 13.4988 0.416728C13.5157 0.406712 13.529 0.405747 13.5365 0.406423C13.5454 0.407225 13.5523 0.410466 13.559 0.418629L15.3506 2.73156ZM14.8661 3.39721H15.592C15.5955 3.46456 15.5937 3.53277 15.5865 3.60109H14.8661H0.467815C0.460122 3.60109 0.448961 3.59877 0.435336 3.58397C0.421032 3.56843 0.40625 3.54005 0.40625 3.49915C0.40625 3.45825 0.421032 3.42986 0.435335 3.41433C0.44896 3.39953 0.460121 3.39721 0.467815 3.39721H14.8661ZM15.1869 4.25661L15.5543 3.78384C15.5121 3.95305 15.4357 4.11871 15.3228 4.26908L13.5314 6.58182L13.5245 6.59063L13.523 6.59288C13.521 6.59333 13.5182 6.59375 13.5147 6.59375C13.5142 6.59375 13.5137 6.59375 13.5132 6.59374C13.4951 6.5675 13.4836 6.5354 13.4811 6.50309C13.4781 6.46278 13.4897 6.44057 13.4957 6.4329L13.4976 6.43053L15.1869 4.25661Z"
        stroke-width=" 0.8125" />
</svg>