<svg xmlns="http://www.w3.org/2000/svg" aria-hidden="true" style="position:absolute;width:0;height:0;overflow:hidden">
  <defs>
    <symbol id="pawprint" viewBox="0 0 32 32">
      <path d="M20.482 19.149c-.356-2.644-2.011-4.897-4.429-6.024s-5.208-.948-7.462.479l-5.432 3.439c-.901.571-1.58 1.399-1.964 2.394s-.436 2.065-.15 3.093c.286 1.028.882 1.918 1.725 2.573s1.852 1.014 2.919 1.037l.07.001a9.697 9.697 0 0 1 6.986 3.289 4.915 4.915 0 0 0 2.67 1.569c1.043.224 2.108.109 3.08-.332s1.757-1.169 2.274-2.103a4.903 4.903 0 0 0 .572-3.044l-.857-6.372zm-2.765 9.812a3.04 3.04 0 0 1-3.563-.766 11.561 11.561 0 0 0-8.423-3.929l-.046-.001a3.04 3.04 0 0 1-2.833-2.236 3.041 3.041 0 0 1 1.31-3.401l5.432-3.439c1.712-1.084 3.829-1.22 5.665-.364s3.093 2.566 3.363 4.574l.857 6.372a3.04 3.04 0 0 1-1.763 3.19zM6.295 12.527c1.103.077 2.165-.346 2.991-1.19.786-.803 1.264-1.901 1.346-3.091S10.391 5.904 9.723 5c-.702-.949-1.696-1.514-2.798-1.59-2.216-.154-4.161 1.766-4.336 4.281-.137 2.003.89 3.786 2.433 4.506.394.184.822.298 1.272.329zM4.461 7.821C4.564 6.339 5.612 5.2 6.797 5.282c.214.015.422.069.618.161.302.141.576.369.8.673.403.546.597 1.257.546 2.002s-.341 1.423-.816 1.908c-.435.444-.975.668-1.52.63h-.001C5.24 10.575 4.36 9.303 4.461 7.821zM14.188 11.529c2.349 1.095 5.275-.191 6.523-2.867s.353-5.746-1.996-6.841c-2.349-1.095-5.275.191-6.523 2.868s-.352 5.745 1.996 6.84zm3.735-8.008c1.411.658 1.9 2.609 1.089 4.348s-2.619 2.618-4.031 1.96-1.9-2.608-1.089-4.347c.811-1.739 2.619-2.619 4.031-1.961zM20.992 16.152a3.83 3.83 0 0 0 1.014.689c1.713.799 3.964.33 5.495-1.289.881-.932 1.401-2.109 1.463-3.315.065-1.262-.371-2.404-1.23-3.217s-2.025-1.184-3.281-1.047c-1.201.131-2.347.716-3.227 1.648-1.858 1.966-1.963 4.896-.234 6.531zm1.596-5.243c.575-.609 1.309-.989 2.067-1.071.701-.076 1.337.118 1.79.546s.682 1.052.645 1.756c-.039.761-.378 1.516-.953 2.124-1.148 1.215-2.878 1.45-3.857.525-.978-.925-.84-2.665.308-3.88zM30.227 19.769v-.001c-1.062-1.952-3.726-2.563-5.94-1.362-2.213 1.203-3.152 3.77-2.093 5.721a3.679 3.679 0 0 0 1.699 1.579c1.243.58 2.833.548 4.241-.215 2.213-1.203 3.152-3.769 2.093-5.722zm-2.988 4.073c-1.307.709-2.831.435-3.397-.609-.566-1.043.035-2.469 1.339-3.178.867-.47 1.83-.508 2.545-.174.362.169.661.433.852.784.565 1.044-.036 2.469-1.339 3.178z"/>
    </symbol>
    <symbol id="male" viewBox="0 0 33 32">
      <path stroke-linecap="round" stroke-linejoin="round" stroke-width="2" d="M17.01 14.667a6.667 6.667 0 1 0 0 13.334 6.667 6.667 0 0 0 0-13.334zm0 0V4m0 0 5.333 5.333M17.01 4l-5.333 5.333"/>
    </symbol>
    <symbol id="heart" viewBox="0 0 32 32">
      <path  stroke-linecap="round" stroke-linejoin="round" stroke-width="2" d="M5.775 16.063 16 26.666l10.225-10.603A6.403 6.403 0 0 0 28 11.619c0-3.471-2.714-6.285-6.061-6.285a5.954 5.954 0 0 0-4.286 1.841L16 8.89l-1.653-1.715a5.953 5.953 0 0 0-4.286-1.841C6.714 5.334 4 8.148 4 11.619c0 1.667.639 3.266 1.775 4.444z"/>
    </symbol>
    <symbol id="female" viewBox="0 0 32 32">
      <path stroke-linecap="round" stroke-linejoin="round" stroke-width="2" d="M16 17.333a6.667 6.667 0 1 0 0-13.334 6.667 6.667 0 0 0 0 13.334zm0 0V28m-4-4h8"/>
    </symbol>
    <symbol id="clock" viewBox="0 0 33 32">
<path stroke-linejoin="round" stroke-linecap="round" stroke-miterlimit="4" stroke-width="2" d="M16.667 9.333v6.667l4 4M28.667 16c0 6.627-5.373 12-12 12s-12-5.373-12-12c0-6.627 5.373-12 12-12s12 5.373 12 12z"></path>
</symbol>
    <symbol id="location" viewBox="0 0 32 32">
      <path stroke-linecap="round" stroke-linejoin="round" stroke-width="2" d="M26.667 14.667C26.667 20.558 21.891 25.334 16 28c-5.891-2.667-10.667-7.442-10.667-13.333S10.109 4 16 4s10.667 4.776 10.667 10.667z"/>
      <path stroke-linecap="round" stroke-linejoin="round" stroke-width="2" d="M20 14.667a4 4 0 1 1-8 0 4 4 0 0 1 8 0z"/>
    </symbol>
    <symbol id="trash" viewBox="0 0 32 32">
<path stroke-linejoin="round" stroke-linecap="round" stroke-miterlimit="4" stroke-width="2" d="M24 8v16c0 1.473-1.194 2.667-2.667 2.667h-10.667c-1.473 0-2.667-1.194-2.667-2.667v-16M20 8v-1.333c0-1.473-1.194-2.667-2.667-2.667h-2.667c-1.473 0-2.667 1.194-2.667 2.667v1.333M5.333 8h21.333M13.333 13.333v8M18.667 13.333v8"></path>
</symbol>
<symbol id="filters" viewBox="0 0 33 32">
<path stroke-linejoin="round" stroke-linecap="round" stroke-miterlimit="4" stroke-width="2" d="M6.344 5.333l6.667 10.667v8l8 4v-12l6.667-10.667h-21.333z"></path>
</symbol>
<symbol id="check" viewBox="0 0 32 32">
<path stroke-linejoin="round" stroke-linecap="round" stroke-miterlimit="4" stroke-width="2" d="M26.667 9.333l-14.667 14.667-6.667-6.667"></path>
</symbol>
<symbol id="chevron-down" viewBox="0 0 32 32">
<path stroke-linejoin="round" stroke-linecap="round" stroke-miterlimit="4" stroke-width="2" d="M5.333 12l10.667 10.667 10.667-10.667"></path>
</symbol>
  </defs>
</svg>
